<?xml version="1.0" encoding="UTF-8"?>
<svg viewBox="0 0 18 18" version="1.1" xmlns="http://www.w3.org/2000/svg" xmlns:xlink="http://www.w3.org/1999/xlink">
    <!-- Generator: Sketch 51.2 (57519) - http://www.bohemiancoding.com/sketch -->
    <title>exclamation-circle-solid</title>
    <desc>Created with Sketch.</desc>
    <defs></defs>
    <g id="Desktop" stroke="none" stroke-width="1" fill="none" fill-rule="evenodd">
        <g id="Contact-Page-Filled" transform="translate(-1207.000000, -1126.000000)" fill="#E52321" fill-rule="nonzero">
            <g id="exclamation-circle-solid" transform="translate(1207.000000, 1126.000000)">
                <path d="M18,9 C18,13.9716653 13.9702137,18 9,18 C4.02978629,18 0,13.9716653 0,9 C0,4.0312379 4.02978629,0 9,0 C13.9702137,0 18,4.0312379 18,9 Z M9,10.8145161 C8.07804435,10.8145161 7.33064516,11.5619153 7.33064516,12.483871 C7.33064516,13.4058266 8.07804435,14.1532258 9,14.1532258 C9.92195565,14.1532258 10.6693548,13.4058266 10.6693548,12.483871 C10.6693548,11.5619153 9.92195565,10.8145161 9,10.8145161 Z M7.41509274,4.81405645 L7.68429435,9.74954032 C7.6968871,9.98049194 7.88784677,10.1612903 8.119125,10.1612903 L9.880875,10.1612903 C10.1121532,10.1612903 10.3031129,9.98049194 10.3157056,9.74954032 L10.5849073,4.81405645 C10.5985161,4.56459677 10.3998992,4.35483871 10.1500766,4.35483871 L7.8498871,4.35483871 C7.60006452,4.35483871 7.40148387,4.56459677 7.41509274,4.81405645 Z" id="Shape"></path>
            </g>
        </g>
    </g>
</svg>