<?xml version="1.0" encoding="UTF-8"?>
<svg width="33px" height="42px" viewBox="0 0 33 42" version="1.1" xmlns="http://www.w3.org/2000/svg" xmlns:xlink="http://www.w3.org/1999/xlink">
    <!-- Generator: Sketch 51.2 (57519) - http://www.bohemiancoding.com/sketch -->
    <title>Group 8</title>
    <desc>Created with Sketch.</desc>
    <defs></defs>
    <g id="Desktop" stroke="none" stroke-width="1" fill="none" fill-rule="evenodd">
        <g id="Home" transform="translate(-551.000000, -2091.000000)">
            <g id="Group-6" transform="translate(0.000000, 1818.000000)">
                <g id="Group-8" transform="translate(551.000000, 273.000000)">
                    <path d="M32.692,36.937283 L32.692,0.307999983 L0.307999983,0.307999983 L0.307999983,36.937283 L12.3246288,36.937283 L16.5,41.5415071 L20.6753712,36.937283 L32.692,36.937283 Z" id="Combined-Shape" stroke-opacity="0.667657382" stroke="#F98C21" stroke-width="0.615999966" fill="#EF7F11" fill-rule="nonzero"></path>
                    <path d="M16.4819336,29.2563477 C15.6844036,29.2563477 14.9825063,29.1464855 14.3762207,28.9267578 C13.7699351,28.7070302 13.2775898,28.4140643 12.8991699,28.0478516 C12.5207501,27.6816388 12.2135428,27.2218452 11.9775391,26.668457 C11.7415353,26.1150688 11.5787765,25.5372751 11.4892578,24.9350586 C11.3997391,24.332842 11.3549805,23.6573931 11.3549805,22.9086914 L11.3549805,14.8642578 C11.3549805,14.0830039 11.4017736,13.3851756 11.4953613,12.770752 C11.588949,12.1563283 11.7557768,11.5785346 11.9958496,11.0373535 C12.2359224,10.4961724 12.5471986,10.0465513 12.9296875,9.68847656 C13.3121764,9.33040186 13.8024872,9.04964294 14.4006348,8.84619141 C14.9987823,8.64273987 15.6925416,8.54101562 16.4819336,8.54101562 C17.3689823,8.54101562 18.1258107,8.67325714 18.7524414,8.93774414 C19.3790721,9.20223114 19.8754865,9.59081775 20.2416992,10.1035156 C20.607912,10.6162135 20.872395,11.2143521 21.0351562,11.8979492 C21.1979175,12.5815464 21.2792969,13.3790645 21.2792969,14.2905273 L21.2792969,15.5356445 L19.4726562,15.5356445 L19.4726562,14.3515625 C19.4726562,13.6354131 19.4360355,13.0372745 19.362793,12.5571289 C19.2895504,12.0769833 19.149171,11.6355001 18.9416504,11.232666 C18.7341298,10.829832 18.4289571,10.5327972 18.026123,10.3415527 C17.623289,10.1503083 17.1126333,10.0546875 16.4941406,10.0546875 C15.8268196,10.0546875 15.2754742,10.1604807 14.8400879,10.3720703 C14.4047016,10.5836599 14.0771495,10.9051085 13.8574219,11.3364258 C13.6376942,11.767743 13.4871423,12.237709 13.4057617,12.7463379 C13.3243811,13.2549667 13.2836914,13.8795536 13.2836914,14.6201172 L13.2836914,23.2138672 C13.2836914,24.7845131 13.5176572,25.9278936 13.9855957,26.644043 C14.4535342,27.3601924 15.2897075,27.7182617 16.4941406,27.7182617 C16.9905624,27.7182617 17.4178042,27.6470547 17.7758789,27.5046387 C18.1339536,27.3622226 18.420816,27.1730155 18.6364746,26.9370117 C18.8521332,26.7010079 19.02303,26.3897318 19.1491699,26.0031738 C19.2753099,25.6166159 19.3607582,25.2178569 19.4055176,24.8068848 C19.4502769,24.3959127 19.4726562,23.9056018 19.4726562,23.3359375 L19.4726562,22.0175781 L21.2792969,22.0175781 L21.2792969,23.2016602 C21.2792969,23.9422238 21.2345382,24.6075003 21.1450195,25.1975098 C21.0555009,25.7875192 20.8988455,26.3429336 20.6750488,26.8637695 C20.4512521,27.3846055 20.1603208,27.8159163 19.8022461,28.1577148 C19.4441714,28.4995134 18.9864123,28.7680654 18.4289551,28.9633789 C17.8714979,29.1586924 17.2224972,29.2563477 16.4819336,29.2563477 Z" id="C" fill="#FFFFFF"></path>
                </g>
            </g>
        </g>
    </g>
</svg>