<?xml version="1.0" encoding="UTF-8"?>
<svg viewBox="0 0 18 18" version="1.1" xmlns="http://www.w3.org/2000/svg" xmlns:xlink="http://www.w3.org/1999/xlink">
    <!-- Generator: Sketch 51.2 (57519) - http://www.bohemiancoding.com/sketch -->
    <title>times-solid copy 4</title>
    <desc>Created with Sketch.</desc>
    <defs></defs>
    <g id="Mobile" stroke="none" stroke-width="1" fill="none" fill-rule="evenodd">
        <g id="Home" transform="translate(-279.000000, -1992.000000)" fill="#000000" fill-rule="nonzero">
            <g id="Group-2" transform="translate(-252.000000, 576.000000)">
                <g id="times-solid-copy-4" transform="translate(539.899495, 1424.899495) rotate(-315.000000) translate(-539.899495, -1424.899495) translate(532.899495, 1417.899495)">
                    <path d="M9.65363636,7 L13.6336932,3.01994318 C14.1221023,2.53153409 14.1221023,1.73965909 13.6336932,1.25085227 L12.7491477,0.366306818 C12.2607386,-0.122102273 11.4688636,-0.122102273 10.9800568,0.366306818 L7,4.34636364 L3.01994318,0.366306818 C2.53153409,-0.122102273 1.73965909,-0.122102273 1.25085227,0.366306818 L0.366306818,1.25085227 C-0.122102273,1.73926136 -0.122102273,2.53113636 0.366306818,3.01994318 L4.34636364,7 L0.366306818,10.9800568 C-0.122102273,11.4684659 -0.122102273,12.2603409 0.366306818,12.7491477 L1.25085227,13.6336932 C1.73926136,14.1221023 2.53153409,14.1221023 3.01994318,13.6336932 L7,9.65363636 L10.9800568,13.6336932 C11.4684659,14.1221023 12.2607386,14.1221023 12.7491477,13.6336932 L13.6336932,12.7491477 C14.1221023,12.2607386 14.1221023,11.4688636 13.6336932,10.9800568 L9.65363636,7 Z" id="Shape"></path>
                </g>
            </g>
        </g>
    </g>
</svg>