<svg xmlns="http://www.w3.org/2000/svg" width="25" height="25" viewBox="0 0 25 25">
    <path fill="#FFF" fill-rule="nonzero" d="M22.321 0H2.68A2.68 2.68 0 0 0 0 2.679V22.32A2.68 2.68 0 0 0 2.679 25H22.32A2.68 2.68 0 0 0 25 22.321V2.68A2.68 2.68 0 0 0 22.321 0zm-2.728 8.862c.01.156.01.318.01.474 0 4.838-3.682 10.413-10.412 10.413-2.076 0-4.001-.603-5.62-1.64.296.033.58.044.882.044 1.713 0 3.287-.58 4.543-1.563a3.665 3.665 0 0 1-3.421-2.539c.563.084 1.071.084 1.652-.067a3.66 3.66 0 0 1-2.93-3.593v-.045c.485.273 1.055.44 1.652.463a3.652 3.652 0 0 1-1.63-3.047c0-.68.179-1.306.497-1.847a10.392 10.392 0 0 0 7.544 3.828c-.518-2.483 1.34-4.497 3.572-4.497 1.055 0 2.003.44 2.673 1.155a7.172 7.172 0 0 0 2.321-.882 3.65 3.65 0 0 1-1.607 2.014 7.283 7.283 0 0 0 2.11-.569 7.704 7.704 0 0 1-1.836 1.898z"/>
</svg>
