<svg xmlns="http://www.w3.org/2000/svg" width="25" height="25" viewBox="0 0 25 25">
    <path fill="#FFF" fill-rule="nonzero" d="M23.214 0H1.78C.798 0 0 .81 0 1.802v21.396C0 24.19.798 25 1.78 25h21.434c.982 0 1.786-.81 1.786-1.802V1.802C25 .81 24.196 0 23.214 0zM7.556 21.429H3.85V9.498h3.711v11.93h-.005zM5.703 7.869a2.15 2.15 0 0 1 0-4.298c1.183 0 2.149.966 2.149 2.149 0 1.188-.96 2.148-2.149 2.148zm15.742 13.56H17.74v-5.804c0-1.384-.028-3.164-1.925-3.164-1.931 0-2.227 1.507-2.227 3.064v5.904H9.883V9.498h3.555v1.63h.05c.496-.938 1.707-1.926 3.51-1.926 3.75 0 4.447 2.472 4.447 5.686v6.54z"/>
</svg>
